<svg width="36" height="37" viewBox="0 0 36 37" fill="none" xmlns="http://www.w3.org/2000/svg">
<path d="M13.0007 1.83325H23.0007C31.334 1.83325 34.6673 5.16659 34.6673 13.4999V23.4999C34.6673 31.8333 31.334 35.1666 23.0007 35.1666H13.0007C4.66732 35.1666 1.33398 31.8333 1.33398 23.4999V13.4999C1.33398 5.16659 4.66732 1.83325 13.0007 1.83325Z" stroke="#E5CB9B" stroke-width="2" stroke-linecap="round" stroke-linejoin="round"/>
<path d="M12.2832 23.95L23.1832 13.05" stroke="#E5CB9B" stroke-width="2" stroke-linecap="round" stroke-linejoin="round"/>
<path d="M12.966 15.7833C14.0982 15.7833 15.016 14.8656 15.016 13.7334C15.016 12.6012 14.0982 11.6833 12.966 11.6833C11.8339 11.6833 10.916 12.6012 10.916 13.7334C10.916 14.8656 11.8339 15.7833 12.966 15.7833Z" stroke="#E5CB9B" stroke-width="2" stroke-linecap="round" stroke-linejoin="round"/>
<path d="M23.8664 25.3168C24.9986 25.3168 25.9164 24.3989 25.9164 23.2668C25.9164 22.1346 24.9986 21.2168 23.8664 21.2168C22.7342 21.2168 21.8164 22.1346 21.8164 23.2668C21.8164 24.3989 22.7342 25.3168 23.8664 25.3168Z" stroke="#E5CB9B" stroke-width="2" stroke-linecap="round" stroke-linejoin="round"/>
</svg>